<svg xmlns="http://www.w3.org/2000/svg" viewBox="0 0 200 200" width="200" height="200">
  <!-- Las Vegas background with gradient night sky -->
  <defs>
    <linearGradient id="vegasNightSky" x1="0%" y1="0%" x2="0%" y2="100%">
      <stop offset="0%" style="stop-color:#1a1a2e;stop-opacity:1" />
      <stop offset="50%" style="stop-color:#16213e;stop-opacity:1" />
      <stop offset="100%" style="stop-color:#0f3460;stop-opacity:1" />
    </linearGradient>
    <radialGradient id="neonGlow" cx="50%" cy="50%" r="50%">
      <stop offset="0%" style="stop-color:#ff00ff;stop-opacity:0.8" />
      <stop offset="100%" style="stop-color:#ff00ff;stop-opacity:0" />
    </radialGradient>
  </defs>
  
  <rect width="200" height="200" fill="url(#vegasNightSky)"/>
  
  <!-- Stars -->
  <circle cx="20" cy="15" r="1" fill="white" opacity="0.8"/>
  <circle cx="45" cy="25" r="0.5" fill="white" opacity="0.6"/>
  <circle cx="180" cy="20" r="1" fill="white" opacity="0.9"/>
  <circle cx="160" cy="35" r="0.5" fill="white" opacity="0.7"/>
  <circle cx="90" cy="10" r="0.8" fill="white" opacity="0.8"/>
  <circle cx="120" cy="30" r="0.5" fill="white" opacity="0.6"/>
  
  <!-- Casino buildings silhouettes -->
  <!-- Left casino tower -->
  <rect x="10" y="100" width="30" height="100" fill="#0a0a0a"/>
  <rect x="12" y="102" width="26" height="96" fill="#1a1a1a"/>
  <!-- Windows with lights -->
  <rect x="15" y="110" width="4" height="6" fill="#FFD700" opacity="0.8"/>
  <rect x="23" y="110" width="4" height="6" fill="#FFD700" opacity="0.8"/>
  <rect x="31" y="110" width="4" height="6" fill="#FFD700" opacity="0.8"/>
  <rect x="15" y="125" width="4" height="6" fill="#FF1493" opacity="0.8"/>
  <rect x="23" y="125" width="4" height="6" fill="#00FFFF" opacity="0.8"/>
  <rect x="31" y="125" width="4" height="6" fill="#FFD700" opacity="0.8"/>
  <rect x="15" y="140" width="4" height="6" fill="#00FFFF" opacity="0.8"/>
  <rect x="23" y="140" width="4" height="6" fill="#FFD700" opacity="0.8"/>
  <rect x="31" y="140" width="4" height="6" fill="#FF1493" opacity="0.8"/>
  
  <!-- Center tall casino -->
  <rect x="160" y="80" width="35" height="120" fill="#0a0a0a"/>
  <rect x="162" y="82" width="31" height="116" fill="#1a1a1a"/>
  <!-- Neon sign on top -->
  <rect x="165" y="75" width="25" height="8" fill="#FF1493" opacity="0.9"/>
  <circle cx="177" cy="79" r="8" fill="url(#neonGlow)"/>
  <!-- Windows -->
  <rect x="167" y="90" width="5" height="7" fill="#00FFFF" opacity="0.8"/>
  <rect x="175" y="90" width="5" height="7" fill="#FFD700" opacity="0.8"/>
  <rect x="183" y="90" width="5" height="7" fill="#FF1493" opacity="0.8"/>
  <rect x="167" y="110" width="5" height="7" fill="#FFD700" opacity="0.8"/>
  <rect x="175" y="110" width="5" height="7" fill="#FF1493" opacity="0.8"/>
  <rect x="183" y="110" width="5" height="7" fill="#00FFFF" opacity="0.8"/>
  <rect x="167" y="130" width="5" height="7" fill="#FF1493" opacity="0.8"/>
  <rect x="175" y="130" width="5" height="7" fill="#00FFFF" opacity="0.8"/>
  <rect x="183" y="130" width="5" height="7" fill="#FFD700" opacity="0.8"/>
  
  <!-- Neon lights and signs -->
  <!-- Pink neon glow left -->
  <circle cx="25" cy="95" r="15" fill="#FF1493" opacity="0.3"/>
  <circle cx="25" cy="95" r="8" fill="#FF1493" opacity="0.5"/>
  
  <!-- Cyan neon glow right -->
  <circle cx="177" cy="70" r="20" fill="#00FFFF" opacity="0.2"/>
  <circle cx="177" cy="70" r="10" fill="#00FFFF" opacity="0.4"/>
  
  <!-- Gold neon strips -->
  <rect x="0" y="180" width="200" height="3" fill="#FFD700" opacity="0.6"/>
  <rect x="0" y="190" width="200" height="2" fill="#FF1493" opacity="0.5"/>
  
  <!-- Light beams shooting up -->
  <path d="M 25 200 L 20 100 L 30 100 Z" fill="#FF1493" opacity="0.15"/>
  <path d="M 177 200 L 172 80 L 182 80 Z" fill="#00FFFF" opacity="0.15"/>
  
  <!-- Arms -->
  <!-- Left arm -->
  <ellipse cx="50" cy="150" rx="12" ry="28" fill="#f5d5c5"/>
  <ellipse cx="48" cy="180" rx="10" ry="25" fill="#f5d5c5"/>
  <!-- Arm shading -->
  <path d="M 42 145 Q 50 150 58 145" stroke="#e5c5b5" stroke-width="1" fill="none"/>
  
  <!-- Right arm -->
  <ellipse cx="150" cy="150" rx="12" ry="28" fill="#f5d5c5"/>
  <ellipse cx="152" cy="180" rx="10" ry="25" fill="#f5d5c5"/>
  <!-- Arm shading -->
  <path d="M 142 145 Q 150 150 158 145" stroke="#e5c5b5" stroke-width="1" fill="none"/>
  
  <!-- Chest/breasts with realistic cleavage -->
  <!-- Left breast -->
  <ellipse cx="85" cy="135" rx="18" ry="22" fill="#f5d5c5"/>
  <ellipse cx="85" cy="133" rx="16" ry="18" fill="#f0d0c0" opacity="0.5"/>
  <!-- Breast curve highlight -->
  <path d="M 75 125 Q 85 128 95 125" stroke="#ffe4d6" stroke-width="2" fill="none" opacity="0.6"/>
  
  <!-- Right breast -->
  <ellipse cx="115" cy="135" rx="18" ry="22" fill="#f5d5c5"/>
  <ellipse cx="115" cy="133" rx="16" ry="18" fill="#f0d0c0" opacity="0.5"/>
  <!-- Breast curve highlight -->
  <path d="M 105 125 Q 115 128 125 125" stroke="#ffe4d6" stroke-width="2" fill="none" opacity="0.6"/>
  
  <!-- Cleavage - the hollow between breasts -->
  <path d="M 100 120 L 100 150" stroke="#d4a89a" stroke-width="3" fill="none"/>
  <ellipse cx="100" cy="135" rx="4" ry="18" fill="#d4a89a" opacity="0.4"/>
  <!-- Deep shadow in cleavage -->
  <ellipse cx="100" cy="138" rx="3" ry="12" fill="#c49888" opacity="0.6"/>
  
  <!-- Breast contour shadows -->
  <path d="M 95 130 Q 100 135 100 145" stroke="#e5c5b5" stroke-width="1.5" fill="none" opacity="0.5"/>
  <path d="M 105 130 Q 100 135 100 145" stroke="#e5c5b5" stroke-width="1.5" fill="none" opacity="0.5"/>
  
  <!-- Low-cut top with square/deep V neckline -->
  <path d="M 60 140 L 55 150 L 55 200 L 145 200 L 145 150 L 140 140 Z" fill="#8B0000"/>
  <rect x="60" y="140" width="80" height="20" fill="#8B0000"/>
  
  <!-- Deep V-neck showing cleavage -->
  <path d="M 70 140 L 100 155 L 130 140" fill="#6B0000"/>
  <path d="M 72 140 L 100 153 L 128 140" fill="#5A0000" opacity="0.3"/>
  
  <!-- Neck -->
  <rect x="85" y="105" width="30" height="25" fill="#f5d5c5"/>
  
  <!-- Delicate necklace -->
  <path d="M 85 120 Q 100 125 115 120" stroke="#FFD700" stroke-width="1" fill="none"/>
  <circle cx="100" cy="126" r="2" fill="#FFD700"/>
  
  <!-- Head -->
  <ellipse cx="100" cy="75" rx="35" ry="40" fill="#f5d5c5"/>
  
  <!-- Voluptuous long dark brown hair -->
  <!-- Hair behind head with lighter outline for contrast -->
  <ellipse cx="100" cy="75" rx="44" ry="47" fill="#6B4E3D" opacity="0.8"/>
  <ellipse cx="100" cy="75" rx="42" ry="45" fill="#4A3425"/>
  
  <!-- Long flowing hair on sides with lighter edges -->
  <path d="M 60 60 Q 55 80 52 100 Q 50 120 48 140 Q 47 160 50 180" stroke="#6B4E3D" stroke-width="27" fill="none" stroke-linecap="round" opacity="0.7"/>
  <path d="M 60 60 Q 55 80 52 100 Q 50 120 48 140 Q 47 160 50 180" stroke="#4A3425" stroke-width="25" fill="none" stroke-linecap="round"/>
  <path d="M 140 60 Q 145 80 148 100 Q 150 120 152 140 Q 153 160 150 180" stroke="#6B4E3D" stroke-width="27" fill="none" stroke-linecap="round" opacity="0.7"/>
  <path d="M 140 60 Q 145 80 148 100 Q 150 120 152 140 Q 153 160 150 180" stroke="#4A3425" stroke-width="25" fill="none" stroke-linecap="round"/>
  
  <!-- Hair volume and waves -->
  <path d="M 65 70 Q 60 90 58 110" stroke="#5D4433" stroke-width="20" fill="none" stroke-linecap="round" opacity="0.7"/>
  <path d="M 135 70 Q 140 90 142 110" stroke="#5D4433" stroke-width="20" fill="none" stroke-linecap="round" opacity="0.7"/>
  
  <!-- Hair highlights for dimension -->
  <path d="M 70 65 Q 68 85 66 105" stroke="#8B6F47" stroke-width="4" fill="none" opacity="0.6"/>
  <path d="M 130 65 Q 132 85 134 105" stroke="#8B6F47" stroke-width="4" fill="none" opacity="0.6"/>
  <path d="M 75 70 Q 73 90 71 110" stroke="#A0826D" stroke-width="2" fill="none" opacity="0.5"/>
  <path d="M 125 70 Q 127 90 129 110" stroke="#A0826D" stroke-width="2" fill="none" opacity="0.5"/>
  
  <!-- Top of head hair with lighter tones -->
  <ellipse cx="100" cy="50" rx="40" ry="24" fill="#6B4E3D" opacity="0.6"/>
  <ellipse cx="100" cy="50" rx="38" ry="22" fill="#4A3425"/>
  <ellipse cx="85" cy="55" rx="20" ry="15" fill="#5D4433" opacity="0.8"/>
  <ellipse cx="115" cy="55" rx="20" ry="15" fill="#5D4433" opacity="0.8"/>
  
  <!-- Face shape refinement -->
  <ellipse cx="100" cy="75" rx="35" ry="40" fill="#f5d5c5"/>
  
  <!-- Big brown eyes -->
  <ellipse cx="85" cy="75" rx="10" ry="13" fill="white"/>
  <ellipse cx="115" cy="75" rx="10" ry="13" fill="white"/>
  
  <!-- Brown irises -->
  <circle cx="85" cy="77" r="7" fill="#4A2511"/>
  <circle cx="115" cy="77" r="7" fill="#4A2511"/>
  
  <!-- Pupils with sparkle -->
  <circle cx="85" cy="77" r="4" fill="#1a1a1a"/>
  <circle cx="115" cy="77" r="4" fill="#1a1a1a"/>
  <circle cx="86" cy="75" r="2" fill="white"/>
  <circle cx="116" cy="75" r="2" fill="white"/>
  <circle cx="87" cy="78" r="1" fill="white" opacity="0.6"/>
  <circle cx="117" cy="78" r="1" fill="white" opacity="0.6"/>
  
  <!-- Very long dramatic lashes - upper -->
  <path d="M 78 68 L 76 64" stroke="#1a1a1a" stroke-width="1.5" stroke-linecap="round"/>
  <path d="M 81 67 L 80 62" stroke="#1a1a1a" stroke-width="1.5" stroke-linecap="round"/>
  <path d="M 85 66 L 85 61" stroke="#1a1a1a" stroke-width="1.5" stroke-linecap="round"/>
  <path d="M 89 67 L 90 62" stroke="#1a1a1a" stroke-width="1.5" stroke-linecap="round"/>
  <path d="M 92 68 L 94 64" stroke="#1a1a1a" stroke-width="1.5" stroke-linecap="round"/>
  
  <path d="M 108 68 L 106 64" stroke="#1a1a1a" stroke-width="1.5" stroke-linecap="round"/>
  <path d="M 111 67 L 110 62" stroke="#1a1a1a" stroke-width="1.5" stroke-linecap="round"/>
  <path d="M 115 66 L 115 61" stroke="#1a1a1a" stroke-width="1.5" stroke-linecap="round"/>
  <path d="M 119 67 L 120 62" stroke="#1a1a1a" stroke-width="1.5" stroke-linecap="round"/>
  <path d="M 122 68 L 124 64" stroke="#1a1a1a" stroke-width="1.5" stroke-linecap="round"/>
  
  <!-- Lower lashes -->
  <path d="M 80 83 L 79 86" stroke="#1a1a1a" stroke-width="1" stroke-linecap="round"/>
  <path d="M 85 84 L 85 87" stroke="#1a1a1a" stroke-width="1" stroke-linecap="round"/>
  <path d="M 90 83 L 91 86" stroke="#1a1a1a" stroke-width="1" stroke-linecap="round"/>
  
  <path d="M 110 83 L 109 86" stroke="#1a1a1a" stroke-width="1" stroke-linecap="round"/>
  <path d="M 115 84 L 115 87" stroke="#1a1a1a" stroke-width="1" stroke-linecap="round"/>
  <path d="M 120 83 L 121 86" stroke="#1a1a1a" stroke-width="1" stroke-linecap="round"/>
  
  <!-- Eyebrows - shaped and defined -->
  <path d="M 75 65 Q 85 62 95 64" stroke="#2D1810" stroke-width="2.5" fill="none" stroke-linecap="round"/>
  <path d="M 105 64 Q 115 62 125 65" stroke="#2D1810" stroke-width="2.5" fill="none" stroke-linecap="round"/>
  
  <!-- Nose - delicate -->
  <path d="M 100 75 L 96 88 L 100 90 L 104 88 Z" fill="#e5c5b5"/>
  <ellipse cx="96" cy="88" rx="2.5" ry="3" fill="#d4a89a"/>
  <ellipse cx="104" cy="88" rx="2.5" ry="3" fill="#d4a89a"/>
  
  <!-- Full lips -->
  <ellipse cx="100" cy="98" rx="12" ry="5" fill="#C85A54"/>
  <ellipse cx="100" cy="101" rx="12" ry="4" fill="#B84A44"/>
  <!-- Lip shine -->
  <ellipse cx="100" cy="97" rx="8" ry="2" fill="#E88A84" opacity="0.6"/>
  
  <!-- Cheekbones highlight -->
  <ellipse cx="75" cy="80" rx="8" ry="5" fill="#FFE4E1" opacity="0.4"/>
  <ellipse cx="125" cy="80" rx="8" ry="5" fill="#FFE4E1" opacity="0.4"/>
  
  <!-- Subtle blush -->
  <ellipse cx="75" cy="82" rx="10" ry="7" fill="#FFB6C1" opacity="0.25"/>
  <ellipse cx="125" cy="82" rx="10" ry="7" fill="#FFB6C1" opacity="0.25"/>
  
  <!-- Earrings -->
  <circle cx="65" cy="85" r="4" fill="#FFD700"/>
  <circle cx="65" cy="85" r="2" fill="#FFA500"/>
  <circle cx="135" cy="85" r="4" fill="#FFD700"/>
  <circle cx="135" cy="85" r="2" fill="#FFA500"/>
</svg>
