<svg xmlns="http://www.w3.org/2000/svg" viewBox="0 0 200 200" width="200" height="200">
  <!-- Night sky background with gradient -->
  <defs>
    <linearGradient id="nightSky" x1="0%" y1="0%" x2="0%" y2="100%">
      <stop offset="0%" style="stop-color:#0a1128;stop-opacity:1" />
      <stop offset="50%" style="stop-color:#1a1f3a;stop-opacity:1" />
      <stop offset="100%" style="stop-color:#2d3561;stop-opacity:1" />
    </linearGradient>
  </defs>
  
  <rect width="200" height="200" fill="url(#nightSky)"/>
  
  <!-- Stars -->
  <circle cx="20" cy="15" r="1.5" fill="white" opacity="0.9"/>
  <circle cx="45" cy="25" r="1" fill="white" opacity="0.8"/>
  <circle cx="35" cy="35" r="0.8" fill="white" opacity="0.7"/>
  <circle cx="180" cy="20" r="1.2" fill="white" opacity="0.9"/>
  <circle cx="190" cy="35" r="0.8" fill="white" opacity="0.7"/>
  <circle cx="90" cy="10" r="1" fill="white" opacity="0.8"/>
  <circle cx="120" cy="20" r="1.5" fill="white" opacity="0.9"/>
  <circle cx="70" cy="30" r="0.8" fill="white" opacity="0.7"/>
  <circle cx="140" cy="15" r="1" fill="white" opacity="0.8"/>
  <circle cx="25" cy="45" r="1.2" fill="white" opacity="0.8"/>
  <circle cx="195" cy="60" r="1" fill="white" opacity="0.7"/>
  <circle cx="10" cy="70" r="0.8" fill="white" opacity="0.6"/>
  
  <!-- Twinkling stars (larger) -->
  <circle cx="50" cy="15" r="1.5" fill="white" opacity="1">
    <animate attributeName="opacity" values="1;0.3;1" dur="2s" repeatCount="indefinite"/>
  </circle>
  <circle cx="170" cy="70" r="1.2" fill="white" opacity="1">
    <animate attributeName="opacity" values="0.3;1;0.3" dur="3s" repeatCount="indefinite"/>
  </circle>
  <circle cx="100" cy="25" r="1" fill="white" opacity="1">
    <animate attributeName="opacity" values="1;0.5;1" dur="2.5s" repeatCount="indefinite"/>
  </circle>
  
  <!-- Arms -->
  <!-- Left arm -->
  <ellipse cx="50" cy="145" rx="11" ry="25" fill="#f5d5c5"/>
  <ellipse cx="48" cy="175" rx="9" ry="23" fill="#f5d5c5"/>
  <!-- Arm shading -->
  <path d="M 43 140 Q 50 145 57 140" stroke="#e5c5b5" stroke-width="0.8" fill="none"/>
  <!-- Age spots on arm -->
  <circle cx="48" cy="150" r="1.5" fill="#d4a89a" opacity="0.4"/>
  <circle cx="52" cy="165" r="1" fill="#d4a89a" opacity="0.4"/>
  
  <!-- Right arm -->
  <ellipse cx="150" cy="145" rx="11" ry="25" fill="#f5d5c5"/>
  <ellipse cx="152" cy="175" rx="9" ry="23" fill="#f5d5c5"/>
  <!-- Arm shading -->
  <path d="M 143 140 Q 150 145 157 140" stroke="#e5c5b5" stroke-width="0.8" fill="none"/>
  <!-- Age spots on arm -->
  <circle cx="152" cy="150" r="1.5" fill="#d4a89a" opacity="0.4"/>
  <circle cx="148" cy="165" r="1" fill="#d4a89a" opacity="0.4"/>
  
  <!-- Floral blouse -->
  <path d="M 60 120 L 55 140 L 55 200 L 145 200 L 145 140 L 140 120 Z" fill="#E6B8D7"/>
  <rect x="60" y="120" width="80" height="30" fill="#E6B8D7"/>
  
  <!-- Floral pattern on blouse -->
  <circle cx="75" cy="135" r="4" fill="#FF69B4" opacity="0.6"/>
  <circle cx="90" cy="145" r="3" fill="#FFB6C1" opacity="0.6"/>
  <circle cx="110" cy="138" r="4" fill="#FF69B4" opacity="0.6"/>
  <circle cx="125" cy="142" r="3" fill="#FFB6C1" opacity="0.6"/>
  <circle cx="70" cy="160" r="3" fill="#FF69B4" opacity="0.6"/>
  <circle cx="100" cy="165" r="4" fill="#FFB6C1" opacity="0.6"/>
  <circle cx="130" cy="158" r="3" fill="#FF69B4" opacity="0.6"/>
  
  <!-- Neck -->
  <rect x="85" y="100" width="30" height="20" fill="#f5d5c5"/>
  
  <!-- Pearl necklace -->
  <ellipse cx="100" cy="118" rx="20" ry="3" fill="none" stroke="#f0f0f0" stroke-width="2"/>
  <circle cx="90" cy="118" r="2" fill="#f8f8f8"/>
  <circle cx="95" cy="117" r="2" fill="#f8f8f8"/>
  <circle cx="100" cy="116" r="2" fill="#f8f8f8"/>
  <circle cx="105" cy="117" r="2" fill="#f8f8f8"/>
  <circle cx="110" cy="118" r="2" fill="#f8f8f8"/>
  
  <!-- Soft blue/silver hair - longer wavy style -->
  <!-- Hair behind head -->
  <ellipse cx="100" cy="70" rx="42" ry="48" fill="#b8d4e8"/>
  
  <!-- Long flowing hair on sides -->
  <path d="M 60 55 Q 55 75 52 95 Q 50 115 48 135 Q 47 150 50 165" stroke="#b8d4e8" stroke-width="22" fill="none" stroke-linecap="round"/>
  <path d="M 140 55 Q 145 75 148 95 Q 150 115 152 135 Q 153 150 150 165" stroke="#b8d4e8" stroke-width="22" fill="none" stroke-linecap="round"/>
  
  <!-- Hair volume and waves with lighter blue -->
  <path d="M 65 65 Q 60 85 58 105 Q 57 120 58 135" stroke="#c8dff0" stroke-width="18" fill="none" stroke-linecap="round" opacity="0.8"/>
  <path d="M 135 65 Q 140 85 142 105 Q 143 120 142 135" stroke="#c8dff0" stroke-width="18" fill="none" stroke-linecap="round" opacity="0.8"/>
  
  <!-- Hair highlights for dimension -->
  <path d="M 70 60 Q 68 80 66 100 Q 65 115 66 130" stroke="#d8e8f5" stroke-width="4" fill="none" opacity="0.7"/>
  <path d="M 130 60 Q 132 80 134 100 Q 135 115 134 130" stroke="#d8e8f5" stroke-width="4" fill="none" opacity="0.7"/>
  <path d="M 75 65 Q 73 85 71 105 Q 70 120 71 135" stroke="#e0f0fa" stroke-width="2" fill="none" opacity="0.6"/>
  <path d="M 125 65 Q 127 85 129 105 Q 130 120 129 135" stroke="#e0f0fa" stroke-width="2" fill="none" opacity="0.6"/>
  
  <!-- Top of head hair -->
  <ellipse cx="100" cy="45" rx="40" ry="25" fill="#b8d4e8"/>
  <ellipse cx="85" cy="50" rx="20" ry="18" fill="#c8dff0" opacity="0.9"/>
  <ellipse cx="115" cy="50" rx="20" ry="18" fill="#c8dff0" opacity="0.9"/>
  <ellipse cx="100" cy="40" rx="35" ry="20" fill="#d8e8f5"/>
  
  <!-- Hair curls texture with blue tones -->
  <circle cx="80" cy="48" r="6" fill="#d0e5f5" opacity="0.8"/>
  <circle cx="90" cy="42" r="5" fill="#d0e5f5" opacity="0.8"/>
  <circle cx="100" cy="38" r="6" fill="#e0f0fa" opacity="0.8"/>
  <circle cx="110" cy="42" r="5" fill="#d0e5f5" opacity="0.8"/>
  <circle cx="120" cy="48" r="6" fill="#d0e5f5" opacity="0.8"/>
  
  <!-- Wavy texture in longer hair -->
  <circle cx="55" cy="90" r="5" fill="#d0e5f5" opacity="0.6"/>
  <circle cx="53" cy="110" r="4" fill="#d0e5f5" opacity="0.6"/>
  <circle cx="55" cy="130" r="5" fill="#d0e5f5" opacity="0.6"/>
  <circle cx="145" cy="90" r="5" fill="#d0e5f5" opacity="0.6"/>
  <circle cx="147" cy="110" r="4" fill="#d0e5f5" opacity="0.6"/>
  <circle cx="145" cy="130" r="5" fill="#d0e5f5" opacity="0.6"/>
  
  <!-- Blue hair highlights -->
  <ellipse cx="95" cy="45" rx="8" ry="5" fill="#a8c8e0" opacity="0.5"/>
  <ellipse cx="105" cy="45" rx="8" ry="5" fill="#a8c8e0" opacity="0.5"/>
  
  <!-- Head (drawn after hair so face is visible) -->
  <ellipse cx="100" cy="75" rx="38" ry="43" fill="#f5d5c5"/>
  
  <!-- Ears with earrings -->
  <ellipse cx="62" cy="75" rx="7" ry="11" fill="#f5d5c5"/>
  <ellipse cx="138" cy="75" rx="7" ry="11" fill="#f5d5c5"/>
  <circle cx="62" cy="82" r="3" fill="#FFD700"/>
  <circle cx="138" cy="82" r="3" fill="#FFD700"/>
  
  <!-- Gentle wrinkles -->
  <path d="M 72 58 Q 100 56 128 58" stroke="#e5c5b5" stroke-width="0.5" fill="none"/>
  <path d="M 74 63 Q 100 61 126 63" stroke="#e5c5b5" stroke-width="0.5" fill="none"/>
  
  <!-- Eyes - kind and bright -->
  <ellipse cx="85" cy="73" rx="9" ry="11" fill="white"/>
  <ellipse cx="115" cy="73" rx="9" ry="11" fill="white"/>
  <circle cx="85" cy="75" r="6" fill="#6B8E23"/>
  <circle cx="115" cy="75" r="6" fill="#6B8E23"/>
  <circle cx="86" cy="73" r="2" fill="white"/>
  <circle cx="116" cy="73" r="2" fill="white"/>
  
  <!-- Eyebrows - thin and arched with blue tint -->
  <path d="M 75 64 Q 85 61 95 63" stroke="#b0c8d8" stroke-width="1.5" fill="none" stroke-linecap="round"/>
  <path d="M 105 63 Q 115 61 125 64" stroke="#b0c8d8" stroke-width="1.5" fill="none" stroke-linecap="round"/>
  
  <!-- Nose - delicate -->
  <path d="M 100 73 L 96 86 L 100 88 L 104 86 Z" fill="#e5c5b5"/>
  <ellipse cx="96" cy="86" rx="2" ry="3" fill="#d4a89a"/>
  <ellipse cx="104" cy="86" rx="2" ry="3" fill="#d4a89a"/>
  
  <!-- Smile with NICE TEETH -->
  <path d="M 85 93 Q 100 100 115 93" stroke="#8b6f5f" stroke-width="2" fill="none" stroke-linecap="round"/>
  <!-- Upper teeth -->
  <rect x="90" y="95" width="4" height="5" fill="white" rx="1"/>
  <rect x="94" y="95" width="4" height="5" fill="white" rx="1"/>
  <rect x="98" y="95" width="4" height="5" fill="white" rx="1"/>
  <rect x="102" y="95" width="4" height="5" fill="white" rx="1"/>
  <rect x="106" y="95" width="4" height="5" fill="white" rx="1"/>
  <!-- Tooth shine -->
  <rect x="91" y="96" width="1" height="2" fill="#f0f0f0" opacity="0.8"/>
  <rect x="99" y="96" width="1" height="2" fill="#f0f0f0" opacity="0.8"/>
  <rect x="107" y="96" width="1" height="2" fill="#f0f0f0" opacity="0.8"/>
  
  <!-- Smile lines (crow's feet) -->
  <path d="M 115 93 Q 120 90 123 86" stroke="#e5c5b5" stroke-width="0.8" fill="none"/>
  <path d="M 117 95 Q 122 93 125 90" stroke="#e5c5b5" stroke-width="0.8" fill="none"/>
  <path d="M 85 93 Q 80 90 77 86" stroke="#e5c5b5" stroke-width="0.8" fill="none"/>
  <path d="M 83 95 Q 78 93 75 90" stroke="#e5c5b5" stroke-width="0.8" fill="none"/>
  
  <!-- Rosy cheeks -->
  <ellipse cx="75" cy="82" rx="8" ry="6" fill="#FFB6C1" opacity="0.3"/>
  <ellipse cx="125" cy="82" rx="8" ry="6" fill="#FFB6C1" opacity="0.3"/>
  
  <!-- Glasses (optional - stylish reading glasses) -->
  <ellipse cx="85" cy="73" rx="12" ry="13" fill="none" stroke="#8B4513" stroke-width="1.5"/>
  <ellipse cx="115" cy="73" rx="12" ry="13" fill="none" stroke="#8B4513" stroke-width="1.5"/>
  <line x1="97" y1="73" x2="103" y2="73" stroke="#8B4513" stroke-width="1.5"/>
  <path d="M 73 73 Q 70 70 68 68" stroke="#8B4513" stroke-width="1.5" fill="none"/>
  <path d="M 127 73 Q 130 70 132 68" stroke="#8B4513" stroke-width="1.5" fill="none"/>
</svg>
